/* XPM */
static char *dc26a38721404b85fd8bb3d4a594f57dSCkljfZFebI2cdpc[] = {
/* columns rows colors chars-per-pixel */
"30 30 2 1 ",
"  c None",
". c white",
/* pixels */
"                              ",
"              ...             ",
"          ...........         ",
"        ...............       ",
"       .................      ",
"      ...................     ",
"     .....................    ",
"    .......................   ",
"    ........................  ",
"   .........................  ",
"   .......................... ",
"  ........................... ",
"  ........................... ",
"  ........................... ",
"  ............. ............. ",
"  ............. ............. ",
"  ........................... ",
"  ........................... ",
"  ........................... ",
"   .......................... ",
"   .........................  ",
"    ........................  ",
"    .......................   ",
"     .....................    ",
"      ...................     ",
"       .................      ",
"        ...............       ",
"          ...........         ",
"              ....            ",
"                              "
};
